<svg data-logo="logo" xmlns="http://www.w3.org/2000/svg" viewBox="0 0 291 43">
                <g id="logogram" transform="translate(0, 1.5)"><path d="M64.8064 9.05459C61.972 6.18394 58.6069 3.90674 54.9036 2.35317C51.2001 0.799599 47.2309 0 43.2223 0C39.2137 0 35.2445 0.799599 31.541 2.35317C27.8377 3.90674 24.4726 6.18394 21.6382 9.05459L43.2223 30.9141L64.8064 9.05459Z" fill="#3A8BEE"></path><path d="M43.2494 30.9455C46.0838 33.8162 49.4488 36.0933 53.1522 37.6468C56.8556 39.2004 60.8249 40 64.8335 40C68.8419 40 72.8117 39.2004 76.515 37.6468C80.2182 36.0933 83.5836 33.8162 86.4179 30.9455L64.8335 9.08594L43.2494 30.9455Z" fill="#609FF0"></path><path d="M43.196 30.9407C40.3615 33.8114 36.9965 36.0885 33.2931 37.642C29.5897 39.1956 25.6204 39.9952 21.6119 39.9952C17.6033 39.9952 13.6341 39.1956 9.9306 37.642C6.22724 36.0885 2.86218 33.8114 0.02771 30.9407L21.6119 9.08115L43.196 30.9407Z" fill="#197AF0"></path><path d="M64.8597 9.05931C67.6939 6.18866 71.0593 3.91157 74.7625 2.35799C78.4658 0.804421 82.4356 0.00482178 86.4437 0.00482178C90.4528 0.00482178 94.4216 0.804421 98.1248 2.35799C101.828 3.91157 105.193 6.18866 108.028 9.05931L86.4437 30.9189L64.8597 9.05931Z" fill="#95C8FE"></path></g>
                <g id="logotype" transform="translate(115, 0)"><path fill="#197af0" d="M24.51 35L8.31 35L8.31 9.54L13.52 9.54L13.52 30.68L24.51 30.68L24.51 35ZM30.83 35L25.70 35L25.70 15.89L30.83 15.89L30.83 35ZM28.27 13.40L28.27 13.40Q27.10 13.40 26.28 12.63Q25.46 11.86 25.46 10.77L25.46 10.77Q25.46 9.67 26.28 8.90Q27.10 8.13 28.27 8.13L28.27 8.13Q29.43 8.13 30.26 8.90Q31.09 9.66 31.09 10.77L31.09 10.77Q31.09 11.86 30.26 12.63Q29.43 13.40 28.27 13.40ZM44.12 35L38.30 35L31.25 15.89L36.71 15.89L39.92 25.81Q40.50 27.67 40.94 29.57Q41.37 31.46 41.83 33.50L41.83 33.50L40.74 33.50Q41.18 31.46 41.61 29.57Q42.04 27.67 42.62 25.81L42.62 25.81L45.80 15.89L51.18 15.89L44.12 35ZM56.75 35L51.62 35L51.62 15.89L56.75 15.89L56.75 35ZM54.19 13.40L54.19 13.40Q53.03 13.40 52.20 12.63Q51.38 11.86 51.38 10.77L51.38 10.77Q51.38 9.67 52.20 8.90Q53.03 8.13 54.19 8.13L54.19 8.13Q55.35 8.13 56.18 8.90Q57.01 9.66 57.01 10.77L57.01 10.77Q57.01 11.86 56.18 12.63Q55.35 13.40 54.19 13.40ZM63.96 23.94L63.96 23.94L63.96 35L58.83 35L58.83 15.89L63.67 15.89L63.76 20.66L63.45 20.66Q64.20 18.27 65.73 16.96Q67.26 15.65 69.69 15.65L69.69 15.65Q71.67 15.65 73.14 16.52Q74.61 17.38 75.43 19.00Q76.25 20.61 76.25 22.85L76.25 22.85L76.25 35L71.12 35L71.12 23.74Q71.12 21.96 70.21 20.95Q69.29 19.94 67.67 19.94L67.67 19.94Q66.59 19.94 65.75 20.41Q64.90 20.88 64.43 21.77Q63.96 22.66 63.96 23.94ZM86.82 42.55L86.82 42.55Q84.45 42.55 82.67 41.95Q80.89 41.34 79.78 40.28Q78.67 39.22 78.25 37.87L78.25 37.87L82.65 36.64Q82.89 37.17 83.40 37.67Q83.90 38.18 84.74 38.50Q85.58 38.83 86.81 38.83L86.81 38.83Q88.77 38.83 89.89 37.93Q91.01 37.03 91.01 35.14L91.01 35.14L91.01 31.62L90.62 31.62Q90.28 32.39 89.63 33.10Q88.98 33.82 87.93 34.27Q86.88 34.73 85.32 34.73L85.32 34.73Q83.17 34.73 81.41 33.72Q79.65 32.71 78.60 30.64Q77.54 28.57 77.54 25.41L77.54 25.41Q77.54 22.18 78.61 20.01Q79.68 17.84 81.45 16.75Q83.22 15.65 85.34 15.65L85.34 15.65Q86.94 15.65 88.04 16.19Q89.13 16.73 89.81 17.54Q90.48 18.35 90.82 19.11L90.82 19.11L91.05 19.11L91.05 15.89L96.09 15.89L96.09 34.85Q96.09 37.43 94.90 39.14Q93.71 40.86 91.63 41.71Q89.54 42.55 86.82 42.55ZM86.93 30.83L86.93 30.83Q88.24 30.83 89.16 30.18Q90.07 29.53 90.55 28.31Q91.03 27.09 91.03 25.38L91.03 25.38Q91.03 23.69 90.55 22.42Q90.07 21.16 89.16 20.46Q88.24 19.76 86.93 19.76L86.93 19.76Q85.58 19.76 84.66 20.48Q83.75 21.21 83.28 22.47Q82.81 23.74 82.81 25.38L82.81 25.38Q82.81 27.05 83.28 28.28Q83.75 29.50 84.67 30.16Q85.59 30.83 86.93 30.83ZM108.61 35L102.85 35L111.55 9.54L118.39 9.54L127.31 35L121.51 35L117.43 22.71Q116.69 20.34 115.93 17.51Q115.17 14.68 114.34 11.33L114.34 11.33L115.46 11.33Q114.66 14.70 113.95 17.54Q113.24 20.39 112.54 22.71L112.54 22.71L108.61 35ZM121.87 29.09L108.29 29.09L108.29 25.00L121.87 25.00L121.87 29.09ZM134.64 35.24L134.64 35.24Q132.65 35.24 131.17 34.38Q129.68 33.51 128.87 31.90Q128.06 30.28 128.06 28.04L128.06 28.04L128.06 15.89L133.18 15.89L133.18 27.16Q133.18 28.93 134.11 29.94Q135.03 30.95 136.64 30.95L136.64 30.95Q137.73 30.95 138.57 30.48Q139.40 30.01 139.87 29.11Q140.34 28.22 140.34 26.95L140.34 26.95L140.34 15.89L145.47 15.89L145.47 35L140.63 35L140.57 30.23L140.86 30.23Q140.10 32.64 138.56 33.94Q137.01 35.24 134.64 35.24ZM152.70 35L147.57 35L147.57 15.89L152.53 15.89L152.53 19.23L152.73 19.23Q153.26 17.45 154.50 16.54Q155.74 15.64 157.35 15.64L157.35 15.64Q157.74 15.64 158.19 15.68Q158.65 15.72 159.00 15.81L159.00 15.81L159.00 20.39Q158.66 20.27 158.01 20.20Q157.36 20.13 156.78 20.13L156.78 20.13Q155.62 20.13 154.68 20.64Q153.74 21.14 153.22 22.04Q152.70 22.93 152.70 24.13L152.70 24.13L152.70 35ZM164.88 35.38L164.88 35.38Q163.07 35.38 161.63 34.74Q160.18 34.09 159.35 32.82Q158.52 31.55 158.52 29.65L158.52 29.65Q158.52 28.06 159.11 26.98Q159.70 25.91 160.72 25.26Q161.74 24.61 163.03 24.27Q164.32 23.93 165.74 23.79L165.74 23.79Q167.39 23.62 168.41 23.47Q169.43 23.33 169.90 23.01Q170.37 22.70 170.37 22.08L170.37 22.08L170.37 21.99Q170.37 21.17 170.02 20.61Q169.68 20.05 169.02 19.75Q168.35 19.45 167.38 19.45L167.38 19.45Q166.38 19.45 165.65 19.75Q164.92 20.05 164.45 20.54Q163.99 21.04 163.77 21.65L163.77 21.65L159.07 20.87Q159.57 19.21 160.71 18.05Q161.86 16.88 163.56 16.27Q165.26 15.65 167.38 15.65L167.38 15.65Q168.93 15.65 170.38 16.02Q171.84 16.39 172.99 17.16Q174.14 17.93 174.82 19.16Q175.49 20.39 175.49 22.13L175.49 22.13L175.49 35L170.64 35L170.64 32.35L170.47 32.35Q170.01 33.24 169.24 33.91Q168.47 34.59 167.38 34.98Q166.30 35.38 164.88 35.38ZM166.33 31.77L166.33 31.77Q167.55 31.77 168.46 31.29Q169.38 30.81 169.89 29.99Q170.40 29.17 170.40 28.16L170.40 28.16L170.40 26.10Q170.18 26.27 169.72 26.40Q169.26 26.54 168.69 26.64Q168.13 26.75 167.58 26.83Q167.03 26.92 166.61 26.97L166.61 26.97Q165.67 27.10 164.95 27.41Q164.23 27.72 163.84 28.22Q163.45 28.73 163.45 29.51L163.45 29.51Q163.45 30.25 163.82 30.75Q164.20 31.26 164.84 31.51Q165.48 31.77 166.33 31.77Z"></path></g>
                
            </svg>